<svg width="32" height="32" xmlns="http://www.w3.org/2000/svg">
    <style>
      path {
          fill: #000;
      }
      @media (prefers-color-scheme: dark) {
          path {
              fill: #fff;
          }
      }
  </style>  
    <path
      d="M23.535 15.93c5.038.9 8.465 2.676 8.465 4.72C32 23.604 24.836 26 16 26c-8.837 0-16-2.396-16-5.35 0-2.043 3.427-3.82 8.464-4.72 2.188.55 4.77.868 7.535.868 2.68 0 5.185-.297 7.328-.817l.208-.052zm-1.944-8.76c4.268.693 7.21 2.158 7.21 3.85 0 2.365-5.732 4.28-12.802 4.28-7.069 0-12.8-1.916-12.8-4.28 0-1.692 2.94-3.157 7.207-3.85 1.64.408 3.551.641 5.593.641 2.023 0 3.918-.229 5.546-.629l.047-.012zM16 0C21.302 0 25.6 1.436 25.6 3.21c0 1.772-4.298 3.21-9.6 3.21S6.4 4.983 6.4 3.21C6.4 1.436 10.698 0 16 0z"
      fill-rule="evenodd"
    />
  </svg>